<svg width="80" height="80" viewBox="0 0 80 80" fill="none" xmlns="http://www.w3.org/2000/svg">
<rect width="80" height="80" rx="40" fill="#5AB280"/>
<g clip-path="url(#clip0_2110_218)">
<path d="M41.0285 58.2795C40.3665 58.5349 39.6333 58.5349 38.9713 58.2795V58.2795C33.8019 56.2526 29.3631 52.715 26.2338 48.1281C23.1046 43.5412 21.43 38.1179 21.4285 32.5652V24.1938C21.4285 23.4361 21.7295 22.7093 22.2653 22.1735C22.8011 21.6377 23.5278 21.3367 24.2856 21.3367H55.7142C56.4719 21.3367 57.1987 21.6377 57.7345 22.1735C58.2703 22.7093 58.5713 23.4361 58.5713 24.1938V32.5367C58.5755 38.0942 56.9036 43.5238 53.774 48.1163C50.6444 52.7088 46.2025 56.2508 41.0285 58.2795V58.2795Z" stroke="white" stroke-width="2.86" stroke-linecap="round" stroke-linejoin="round"/>
<path d="M39.9998 42.7652C43.9447 42.7652 47.1426 39.5672 47.1426 35.6223C47.1426 31.6775 43.9447 28.4795 39.9998 28.4795C36.0549 28.4795 32.8569 31.6775 32.8569 35.6223C32.8569 39.5672 36.0549 42.7652 39.9998 42.7652Z" fill="#5AB280" stroke="white" stroke-width="2.86" stroke-linecap="round" stroke-linejoin="round"/>
<path d="M29.2856 51.8796C30.6262 50.3595 32.275 49.142 34.1222 48.3081C35.9695 47.4742 37.9731 47.043 39.9999 47.043C42.0267 47.043 44.0303 47.4742 45.8776 48.3081C47.7249 49.142 49.3736 50.3595 50.7142 51.8796" stroke="white" stroke-width="2.86" stroke-linecap="round" stroke-linejoin="round"/>
</g>
<defs>
<clipPath id="clip0_2110_218">
<rect width="40" height="40" fill="white" transform="translate(20 19.9082)"/>
</clipPath>
</defs>
</svg>
