<svg width="40" height="40" viewBox="0 0 40 40" fill="none" xmlns="http://www.w3.org/2000/svg">
<path d="M35.7142 1.42847H4.28561C2.70765 1.42847 1.42847 2.70765 1.42847 4.28561V31.4285C1.42847 33.0064 2.70765 34.2856 4.28561 34.2856H35.7142C37.2921 34.2856 38.5713 33.0064 38.5713 31.4285V4.28561C38.5713 2.70765 37.2921 1.42847 35.7142 1.42847Z" stroke="#0A2013" stroke-width="2.86" stroke-linecap="round" stroke-linejoin="round"/>
<path d="M24.2856 22.8569C27.0471 22.8569 29.2856 20.6184 29.2856 17.8569C29.2856 15.0955 27.0471 12.8569 24.2856 12.8569C21.5242 12.8569 19.2856 15.0955 19.2856 17.8569C19.2856 20.6184 21.5242 22.8569 24.2856 22.8569Z" fill="#5AB280" stroke="#0A2013" stroke-width="2.86" stroke-linecap="round" stroke-linejoin="round"/>
<path d="M24.2856 9.28564V12.8571" stroke="#0A2013" stroke-width="2.86" stroke-linecap="round" stroke-linejoin="round"/>
<path d="M24.2856 22.8569V26.4284" stroke="#0A2013" stroke-width="2.86" stroke-linecap="round" stroke-linejoin="round"/>
<path d="M32.8571 17.8569H29.2856" stroke="#0A2013" stroke-width="2.86" stroke-linecap="round" stroke-linejoin="round"/>
<path d="M19.2855 17.8569H15.7141" stroke="#0A2013" stroke-width="2.86" stroke-linecap="round" stroke-linejoin="round"/>
<path d="M30.3427 11.7998L27.8284 14.3141" stroke="#0A2013" stroke-width="2.86" stroke-linecap="round" stroke-linejoin="round"/>
<path d="M20.7428 21.3999L18.2285 23.9142" stroke="#0A2013" stroke-width="2.86" stroke-linecap="round" stroke-linejoin="round"/>
<path d="M30.3427 23.9142L27.8284 21.3999" stroke="#0A2013" stroke-width="2.86" stroke-linecap="round" stroke-linejoin="round"/>
<path d="M20.7428 14.3141L18.2285 11.7998" stroke="#0A2013" stroke-width="2.86" stroke-linecap="round" stroke-linejoin="round"/>
<path d="M8.57129 12.8569V22.8569" stroke="#0A2013" stroke-width="2.86" stroke-linecap="round" stroke-linejoin="round"/>
<path d="M5.71411 34.2856V38.5714" stroke="#0A2013" stroke-width="2.86" stroke-linecap="round" stroke-linejoin="round"/>
<path d="M32.8569 34.2856V38.5714" stroke="#0A2013" stroke-width="2.86" stroke-linecap="round" stroke-linejoin="round"/>
</svg>
