<svg width="40" height="40" viewBox="0 0 40 40" fill="none" xmlns="http://www.w3.org/2000/svg">
<path d="M12.8569 15.7144V32.8572C12.8569 36.0001 18.5712 38.5715 25.7141 38.5715C32.8569 38.5715 38.5712 36.0001 38.5712 32.8572V15.7144" fill="#5AB280"/>
<path d="M12.8569 15.7144V32.8572C12.8569 36.0001 18.5712 38.5715 25.7141 38.5715C32.8569 38.5715 38.5712 36.0001 38.5712 32.8572V15.7144" stroke="#0A2013" stroke-width="2.86" stroke-linecap="round" stroke-linejoin="round"/>
<path d="M38.5712 24.2856C38.5712 27.4285 32.8569 29.9999 25.7141 29.9999C18.5712 29.9999 12.8569 27.4285 12.8569 24.2856" stroke="#0A2013" stroke-width="2.86" stroke-linecap="round" stroke-linejoin="round"/>
<path d="M25.7141 21.4286C32.8149 21.4286 38.5712 18.8702 38.5712 15.7143C38.5712 12.5584 32.8149 10 25.7141 10C18.6133 10 12.8569 12.5584 12.8569 15.7143C12.8569 18.8702 18.6133 21.4286 25.7141 21.4286Z" fill="#5AB280" stroke="#0A2013" stroke-width="2.86" stroke-linecap="round" stroke-linejoin="round"/>
<path d="M25.4285 4.28578C22.0899 2.22543 18.2037 1.22897 14.2856 1.42864C7.17132 1.42864 1.42847 4.00007 1.42847 7.14293C1.42847 8.82864 3.08561 10.3429 5.71418 11.4286" stroke="#0A2013" stroke-width="2.86" stroke-linecap="round" stroke-linejoin="round"/>
<path d="M5.71418 28.5714C3.08561 27.4857 1.42847 25.9714 1.42847 24.2857V7.14282" stroke="#0A2013" stroke-width="2.86" stroke-linecap="round" stroke-linejoin="round"/>
<path d="M5.71418 20.0001C3.08561 18.9144 1.42847 17.4001 1.42847 15.7144" stroke="#0A2013" stroke-width="2.86" stroke-linecap="round" stroke-linejoin="round"/>
</svg>
