<svg width="44" height="41" viewBox="0 0 44 41" fill="none" xmlns="http://www.w3.org/2000/svg">
<path d="M7.71436 2L36.2858 13.4286" stroke="#0A2013" stroke-width="2.86" stroke-miterlimit="10" stroke-linecap="round"/>
<path d="M30.5715 21.9999L36.3756 13.6747C36.4573 13.5576 36.6318 13.5613 36.7084 13.6818L42.0001 21.9999" stroke="#0A2013" stroke-width="2.86" stroke-miterlimit="10"/>
<path d="M2 10.5714L7.80409 2.24625C7.88574 2.12914 8.06027 2.13283 8.13691 2.25328L13.4286 10.5714" stroke="#0A2013" stroke-width="2.86" stroke-miterlimit="10"/>
<path d="M30.5715 22H42.0001V24.1939C42.0001 27.7153 39.4383 30.5714 36.2858 30.5714C33.1307 30.5714 30.5715 27.7123 30.5715 24.1939V22Z" fill="#5AB280" stroke="#0A2013" stroke-width="2.86" stroke-miterlimit="10" stroke-linejoin="round"/>
<path d="M2 10.5715H13.4286V12.7654C13.4286 16.2868 10.8668 19.143 7.71429 19.143C4.55914 19.143 2 16.2839 2 12.7654V10.5715Z" fill="#5AB280" stroke="#0A2013" stroke-width="2.86" stroke-miterlimit="10" stroke-linejoin="round"/>
<path d="M22.7277 11.7386C24.254 11.7386 25.4913 10.5013 25.4913 8.97503C25.4913 7.44873 24.254 6.21143 22.7277 6.21143C21.2014 6.21143 19.9641 7.44873 19.9641 8.97503C19.9641 10.5013 21.2014 11.7386 22.7277 11.7386Z" fill="#F9F9F9" stroke="#0A2013" stroke-width="2.86" stroke-miterlimit="10"/>
<path d="M22.7278 11.7388V39.3151" stroke="#0A2013" stroke-width="2.86" stroke-miterlimit="10"/>
<path d="M17.7144 39.1428H27.7144" stroke="#0A2013" stroke-width="2.86" stroke-linecap="round"/>
</svg>
