<svg width="40" height="40" viewBox="0 0 40 40" fill="none" xmlns="http://www.w3.org/2000/svg">
<path d="M3.54272 18.6855L36.3999 3.74268" stroke="#0A2013" stroke-width="2.86" stroke-linecap="round" stroke-linejoin="round"/>
<path d="M30.2571 1.42847L36.3999 3.74275L34.1142 9.88561" stroke="#0A2013" stroke-width="2.86" stroke-linecap="round" stroke-linejoin="round"/>
<path d="M37.8572 38.5999H30.7143L30.7143 18.5999C30.7143 18.221 30.8648 17.8576 31.1327 17.5897C31.4006 17.3218 31.764 17.1713 32.1429 17.1713H36.4286C36.8075 17.1713 37.1709 17.3218 37.4388 17.5897C37.7067 17.8576 37.8572 18.221 37.8572 18.5999V38.5999Z" fill="#5AB280" stroke="#0A2013" stroke-width="2.86" stroke-linecap="round" stroke-linejoin="round"/>
<path d="M23.5713 38.5999H16.4284V22.8856C16.4284 22.5067 16.5789 22.1433 16.8469 21.8754C17.1148 21.6075 17.4781 21.457 17.857 21.457H22.1427C22.5216 21.457 22.885 21.6075 23.1529 21.8754C23.4208 22.1433 23.5713 22.5067 23.5713 22.8856L23.5713 38.5999Z" fill="#5AB280" stroke="#0A2013" stroke-width="2.86" stroke-linecap="round" stroke-linejoin="round"/>
<path d="M9.28564 38.5999H2.14279L2.14279 27.1713C2.14279 26.7924 2.2933 26.429 2.56121 26.1611C2.82912 25.8932 3.19248 25.7427 3.57136 25.7427H7.85707C8.23595 25.7427 8.59932 25.8932 8.86723 26.1611C9.13513 26.429 9.28564 26.7924 9.28564 27.1713L9.28564 38.5999Z" fill="#5AB280" stroke="#0A2013" stroke-width="2.86" stroke-linecap="round" stroke-linejoin="round"/>
</svg>
