<svg width="40" height="40" viewBox="0 0 40 40" fill="none" xmlns="http://www.w3.org/2000/svg">
<path d="M34.2856 21.4286V15.7143C34.2856 14.9566 33.9846 14.2298 33.4488 13.694C32.913 13.1582 32.1862 12.8572 31.4285 12.8572H4.28561C3.52785 12.8572 2.80112 13.1582 2.2653 13.694C1.72949 14.2298 1.42847 14.9566 1.42847 15.7143V35.7143C1.42847 36.4721 1.72949 37.1988 2.2653 37.7346C2.80112 38.2704 3.52785 38.5715 4.28561 38.5715H31.4285C32.1862 38.5715 32.913 38.2704 33.4488 37.7346C33.9846 37.1988 34.2856 36.4721 34.2856 35.7143V28.5715" stroke="#0A2013" stroke-width="2.86" stroke-linecap="round" stroke-linejoin="round"/>
<path d="M10.9714 5.71439L27.1714 1.48582C27.3535 1.43453 27.544 1.42065 27.7316 1.44503C27.9191 1.46941 28.0998 1.53153 28.2627 1.62766C28.4255 1.72378 28.5673 1.85191 28.6793 2.00432C28.7912 2.15672 28.8712 2.33023 28.9143 2.51439L29.7143 5.71439" stroke="#0A2013" stroke-width="2.86" stroke-linecap="round" stroke-linejoin="round"/>
<path d="M37.1427 21.4287H29.9999C29.2109 21.4287 28.5713 22.0683 28.5713 22.8573V27.143C28.5713 27.932 29.2109 28.5716 29.9999 28.5716H37.1427C37.9317 28.5716 38.5713 27.932 38.5713 27.143V22.8573C38.5713 22.0683 37.9317 21.4287 37.1427 21.4287Z" fill="#5AB280" stroke="#0A2013" stroke-width="2.86" stroke-linecap="round" stroke-linejoin="round"/>
</svg>
