<svg width="56" height="56" viewBox="0 0 56 56" fill="none" xmlns="http://www.w3.org/2000/svg">
<rect width="56" height="56" rx="28" fill="#FF9533"/>
<path d="M43.1243 35.3325C42.818 31.78 39.1868 29.4043 39.1868 29.4043C39.1868 29.4043 43.8155 28.1487 44.2924 22.6625C44.5943 19.1625 42.3893 15.5093 36.8549 13.8818L38.7624 6.67621L34.2211 5.47309L32.318 12.6612L28.5511 11.6637L30.4543 4.47559L25.9043 3.27246L24.0011 10.4606L16.6861 8.52246L15.483 13.0593L19.9368 14.2362L14.1268 36.1856L9.67301 35L8.39551 39.8125L15.7105 41.7506L13.8074 48.9518L18.3749 50.1812L20.2824 42.98L24.0493 43.9775L22.1243 51.1875L26.6874 52.3818L28.5949 45.1806L29.6493 45.4562C38.5393 47.6875 43.6493 41.4575 43.1243 35.3325ZM27.4661 16.2312C27.4661 16.2312 29.3124 16.7081 31.9636 17.4212C34.4793 18.0993 36.3955 20.3218 35.8049 22.8287C35.2143 25.3356 32.5936 26.9325 29.8418 26.25C27.3174 25.62 25.143 25.0075 25.143 25.0075L27.4661 16.2312ZM27.6718 39.7731C25.0468 39.1343 21.6561 38.1806 21.6561 38.1806L24.0624 29.0675C24.0624 29.0675 27.1249 29.9425 29.8505 30.5987C33.1099 31.4037 35.1005 33.5431 34.383 36.4087C33.6655 39.2743 31.2111 40.635 27.6718 39.7731Z" fill="white"/>
</svg>
