<svg width="131" height="115" viewBox="0 0 131 115" fill="none" xmlns="http://www.w3.org/2000/svg">
<g clip-path="url(#clip0_25_3252)">
<path d="M70.797 54.4484L76.9911 57.2835L105.262 64.6752L99.0682 61.84L70.797 54.4484Z" fill="#006136"/>
<path d="M44.2421 20.7501L50.4362 23.5852L79.4093 33.348L73.2152 30.5129L44.2421 20.7501Z" fill="#004223"/>
<path d="M81.1787 25.2482L87.3728 28.0833L84.978 51.7496L78.7782 48.9065L81.1787 25.2482Z" fill="url(#paint0_linear_25_3252)"/>
<path d="M101.362 48.4331L107.556 51.2683L127.076 65.9452L120.882 63.11L101.362 48.4331Z" fill="#00E0DE"/>
<path d="M98.0166 67.7538L104.203 70.5946L127.076 65.9451L120.882 63.11L98.0166 67.7538Z" fill="#006136"/>
<path d="M101.362 48.4331L100.381 54.3444L100.347 54.549L78.7782 48.9065L81.1787 25.2482L43.5878 12.608L44.2421 20.7502L73.2152 30.513L70.7812 54.46L99.0581 61.8595L99.0379 61.9823L98.0165 67.7539L120.882 63.11L101.362 48.4331Z" fill="url(#paint1_linear_25_3252)"/>
<path style="mix-blend-mode:color-dodge" d="M120.499 63.18L126.702 65.7924L120.558 62.8606L101.362 48.4331L101.263 49.0332L120.499 63.18Z" fill="url(#paint2_radial_25_3252)"/>
<path style="mix-blend-mode:color-dodge" d="M80.718 25.5786L78.3175 49.2369L99.8864 54.8794L99.9201 54.6748L99.9561 54.4566L78.7782 48.9066L81.1787 25.2483L43.5878 12.6081L43.6239 13.1114L80.718 25.5786Z" fill="url(#paint3_radial_25_3252)"/>
<path d="M48.9513 109.897C47.9596 111.919 45.525 112.75 43.5087 111.767C41.4867 110.775 40.6552 108.34 41.639 106.324C42.6307 104.302 45.0652 103.47 47.0815 104.454C49.1035 105.446 49.9351 107.88 48.9513 109.897Z" fill="#004223"/>
<path d="M65.1679 78.401L56.1702 74.004L41.2035 104.928C41.2035 104.928 41.1933 104.948 41.1831 104.967C40.4756 106.412 41.9134 108.569 44.3959 109.783C46.8785 110.998 49.4733 110.809 50.1752 109.356C50.1831 109.35 50.1853 109.337 50.1955 109.317L65.1622 78.3931L65.1679 78.401Z" fill="url(#paint4_linear_25_3252)"/>
<path d="M65.1577 78.4203C64.4501 79.8657 61.869 80.0567 59.3785 78.8477C56.8959 77.6329 55.4581 75.4767 56.1657 74.0313C56.8732 72.5858 59.4544 72.3949 61.9449 73.6039C64.4275 74.8186 65.8652 76.9749 65.1577 78.4203Z" fill="url(#paint5_linear_25_3252)"/>
<path d="M66.3911 71.1497L61.0427 68.5381L58.2263 74.406C58.2263 74.406 58.2184 74.4117 58.2161 74.4254C57.795 75.2806 58.6551 76.5641 60.1256 77.2898C61.604 78.0098 63.1411 77.9059 63.5645 77.0371C63.5645 77.0371 63.5724 77.0314 63.5747 77.0177L66.3911 71.1497Z" fill="url(#paint6_linear_25_3252)"/>
<mask id="mask0_25_3252" style="mask-type:luminance" maskUnits="userSpaceOnUse" x="53" y="6" width="46" height="64">
<path d="M98.3884 22.2778C96.8991 7.21753 85.7833 2.11421 73.5664 10.8737C61.3495 19.6332 52.6385 38.9522 54.1279 54.0125C55.6172 69.0728 66.733 74.1761 78.9499 65.4166C91.1668 56.6571 99.8777 37.3382 98.3884 22.2778Z" fill="white"/>
</mask>
<g mask="url(#mask0_25_3252)">
<path d="M119.739 40.3808L87.8732 -4.0625L27.8688 38.9604L59.7344 83.4037L119.739 40.3808Z" fill="white"/>
<path d="M68.0731 57.2075L75.8218 60.7682L118.81 72.0284L111.059 68.4813L68.0731 57.2075Z" fill="#004223"/>
<path d="M34.8424 15.0541L42.5932 18.6011L78.8461 30.8177L71.0952 27.2706L34.8424 15.0541Z" fill="#004223"/>
<path d="M81.0639 20.6763L88.8148 24.2234L85.8171 53.8422L78.0606 50.2873L81.0639 20.6763Z" fill="url(#paint7_linear_25_3252)"/>
<path d="M113.929 51.7022L112.695 59.1058L112.652 59.3649L78.0606 50.2871L81.064 20.6761L34.0208 4.86689L34.8424 15.054L71.0952 27.2705L68.0607 57.2405L111.041 68.5065L111.016 68.6565L109.74 75.8852L138.354 70.0664L113.929 51.7022Z" fill="url(#paint8_linear_25_3252)"/>
<path style="mix-blend-mode:color-dodge" d="M80.4921 21.0863L77.4887 50.6972L112.08 59.7751L112.123 59.5159L112.17 59.2295L78.0607 50.2872L81.064 20.6762L34.0208 4.86699L34.0719 5.49183L80.4921 21.0863Z" fill="url(#paint9_radial_25_3252)"/>
</g>
<path d="M56.5323 56.5942C54.9596 40.6796 64.1515 20.2701 77.0674 11.0094C82.2544 7.29037 87.248 5.93498 91.4829 6.67503C86.5418 3.03773 79.4616 3.49583 72.0028 8.84379C59.0868 18.1045 49.895 38.514 51.4676 54.4286C52.413 63.9496 56.9921 69.6987 63.2819 70.8054C59.6708 68.1509 57.1919 63.3014 56.5266 56.5863L56.5323 56.5942Z" fill="url(#paint10_linear_25_3252)"/>
<path opacity="0.2" d="M56.5323 56.5942C54.9596 40.6796 64.1515 20.2701 77.0674 11.0094C82.2544 7.29037 87.248 5.93498 91.4829 6.67503C86.5418 3.03773 79.4616 3.49583 72.0028 8.84379C59.0868 18.1045 49.895 38.514 51.4676 54.4286C52.413 63.9496 56.9921 69.6987 63.2819 70.8054C59.6708 68.1509 57.1919 63.3014 56.5266 56.5863L56.5323 56.5942Z" fill="#006136"/>
<path style="mix-blend-mode:screen" opacity="0.5" d="M98.3884 22.2778C96.8991 7.21753 85.7833 2.11421 73.5664 10.8737C61.3495 19.6332 52.6385 38.9522 54.1279 54.0125C55.6172 69.0728 66.733 74.1761 78.9499 65.4166C91.1668 56.6571 99.8777 37.3382 98.3884 22.2778Z" fill="url(#paint11_radial_25_3252)"/>
<path style="mix-blend-mode:multiply" d="M98.3884 22.2778C96.8991 7.21753 85.7833 2.11421 73.5664 10.8737C61.3495 19.6332 52.6385 38.9522 54.1279 54.0125C55.6172 69.0728 66.733 74.1761 78.9499 65.4166C91.1668 56.6571 99.8777 37.3382 98.3884 22.2778Z" fill="url(#paint12_radial_25_3252)"/>
<path d="M103.805 23.4578C103.028 15.6317 99.7942 10.3495 95.1771 8.10347C95.0475 8.04007 88.3324 4.8809 87.9586 4.89634C93.4553 6.60787 97.3853 12.1729 98.244 20.9021C99.8167 36.8167 90.6248 57.2262 77.7088 66.4869C71.1158 71.2141 64.8375 72.1196 60.0486 69.7682C60.3274 69.9893 60.6903 70.2102 61.1975 70.4479C61.3407 70.5135 66.0915 72.5434 66.2291 72.6011C70.9299 74.5947 76.9625 73.5647 83.2696 69.0426C96.1855 59.7819 105.377 39.3724 103.805 23.4578Z" fill="url(#paint13_linear_25_3252)"/>
<path d="M98.244 20.9021C96.6713 4.98747 84.9244 -0.409011 72.0085 8.85168C59.0925 18.1124 49.9007 38.5219 51.4733 54.4365C53.046 70.3511 64.7929 75.7476 77.7088 66.4869C90.6248 57.2262 99.8166 36.8167 98.244 20.9021ZM52.9198 53.1829C51.4675 38.4929 59.9531 19.6481 71.8841 11.0937C83.8151 2.53922 94.65 7.5192 96.1 22.2228C97.5501 36.9264 89.0667 55.7576 77.1357 64.312C65.2047 72.8665 54.3698 67.8865 52.9198 53.1829Z" fill="url(#paint14_linear_25_3252)"/>
<path style="mix-blend-mode:screen" d="M99.4291 21.5319C98.6757 13.9057 95.5827 8.70278 91.1495 6.361C94.5403 9.07733 97.6064 14.4439 98.244 20.9022C99.8167 36.8168 90.6248 57.2263 77.7089 66.487C70.9808 71.311 63.8241 71.5113 59.0042 68.9657C63.9596 72.9416 71.2206 72.6184 78.8939 67.1166C91.8099 57.856 101.002 37.4465 99.4291 21.5319Z" fill="url(#paint15_radial_25_3252)"/>
<path style="mix-blend-mode:screen" opacity="0.5" d="M81.0316 30.6455C86.8611 31.6133 92.3825 33.1748 97.4652 35.2314C98.4344 30.7961 98.7912 26.3789 98.3884 22.2778C96.8991 7.21753 85.7833 2.11421 73.5664 10.8737C67.4182 15.2819 62.1611 22.3587 58.6449 30.2197C65.7003 29.2742 73.2712 29.3663 81.0316 30.6455Z" fill="url(#paint16_radial_25_3252)"/>
</g>
<defs>
<linearGradient id="paint0_linear_25_3252" x1="79.6654" y1="59.5877" x2="87.5655" y2="10.7226" gradientUnits="userSpaceOnUse">
<stop offset="0.11" stop-color="#84EFA9"/>
<stop offset="0.14" stop-color="#7FEFAC"/>
<stop offset="0.49" stop-color="#50F7D8"/>
<stop offset="0.77" stop-color="#33FDF2"/>
<stop offset="0.92" stop-color="#29FFFD"/>
</linearGradient>
<linearGradient id="paint1_linear_25_3252" x1="117.199" y1="68.7932" x2="40.6436" y2="15.0437" gradientUnits="userSpaceOnUse">
<stop stop-color="#00A359"/>
<stop offset="0.74" stop-color="#008248"/>
<stop offset="0.84" stop-color="#007943"/>
<stop offset="1" stop-color="#006136"/>
</linearGradient>
<radialGradient id="paint2_radial_25_3252" cx="0" cy="0" r="1" gradientUnits="userSpaceOnUse" gradientTransform="translate(130.025 54.8946) rotate(54.3596) scale(23.3603 23.3603)">
<stop stop-color="white"/>
<stop offset="1"/>
</radialGradient>
<radialGradient id="paint3_radial_25_3252" cx="0" cy="0" r="1" gradientUnits="userSpaceOnUse" gradientTransform="translate(67.023 33.7863) rotate(54.3596) scale(25.0903)">
<stop stop-color="white"/>
<stop offset="1"/>
</radialGradient>
<linearGradient id="paint4_linear_25_3252" x1="48.0182" y1="90.8043" x2="56.9846" y2="95.1852" gradientUnits="userSpaceOnUse">
<stop stop-color="#006136"/>
<stop offset="0.13" stop-color="#007641"/>
<stop offset="0.23" stop-color="#008248"/>
<stop offset="0.4" stop-color="#006136"/>
<stop offset="0.53" stop-color="#004C29"/>
<stop offset="0.63" stop-color="#004223"/>
<stop offset="0.87" stop-color="#006136"/>
<stop offset="1" stop-color="#004223"/>
</linearGradient>
<linearGradient id="paint5_linear_25_3252" x1="67.3452" y1="73.5204" x2="57.4184" y2="77.5229" gradientUnits="userSpaceOnUse">
<stop stop-color="#004B29"/>
<stop offset="0.15" stop-color="#00502C"/>
<stop offset="0.57" stop-color="#025C33"/>
<stop offset="0.76" stop-color="#004F2B"/>
<stop offset="1" stop-color="#004525"/>
</linearGradient>
<linearGradient id="paint6_linear_25_3252" x1="59.2531" y1="72.2849" x2="64.5575" y2="74.8765" gradientUnits="userSpaceOnUse">
<stop stop-color="#AFD2C8"/>
<stop offset="0.11" stop-color="#CADDDE"/>
<stop offset="0.17" stop-color="#C8EED6"/>
<stop offset="0.4" stop-color="#8FCCAA"/>
<stop offset="0.7" stop-color="#CCF0DB"/>
<stop offset="1" stop-color="#D0F3E0"/>
</linearGradient>
<linearGradient id="paint7_linear_25_3252" x1="79.1719" y1="63.6462" x2="89.06" y2="2.50732" gradientUnits="userSpaceOnUse">
<stop offset="0.01" stop-color="#00A158"/>
<stop offset="0.2" stop-color="#009753"/>
<stop offset="1" stop-color="#037340"/>
</linearGradient>
<linearGradient id="paint8_linear_25_3252" x1="132.195" y1="79.4252" x2="30.2766" y2="7.86416" gradientUnits="userSpaceOnUse">
<stop stop-color="#00A359"/>
<stop offset="0.66" stop-color="#008248"/>
<stop offset="0.79" stop-color="#007943"/>
<stop offset="1" stop-color="#006136"/>
</linearGradient>
<radialGradient id="paint9_radial_25_3252" cx="0" cy="0" r="1" gradientUnits="userSpaceOnUse" gradientTransform="translate(65.6507 33.1467) rotate(54.3596) scale(33.6916 33.6916)">
<stop stop-color="white"/>
<stop offset="1"/>
</radialGradient>
<linearGradient id="paint10_linear_25_3252" x1="86.0628" y1="5.85871" x2="52.1634" y2="62.2764" gradientUnits="userSpaceOnUse">
<stop stop-color="#AADCC0"/>
<stop offset="0.11" stop-color="#E5E9FF"/>
<stop offset="0.4" stop-color="#AFCFE5"/>
<stop offset="0.7" stop-color="#B6DDE4"/>
<stop offset="1" stop-color="#BAE5E3"/>
</linearGradient>
<radialGradient id="paint11_radial_25_3252" cx="0" cy="0" r="1" gradientUnits="userSpaceOnUse" gradientTransform="translate(80.1911 29.5403) rotate(54.3596) scale(33.9946 33.9946)">
<stop stop-color="#66CCD5"/>
<stop offset="1" stop-color="#5277B1"/>
</radialGradient>
<radialGradient id="paint12_radial_25_3252" cx="0" cy="0" r="1" gradientUnits="userSpaceOnUse" gradientTransform="translate(79.9105 29.5851) rotate(54.3596) scale(33.9946 33.9946)">
<stop offset="0.48" stop-color="#E3FFFD"/>
<stop offset="1" stop-color="#AFD6C5"/>
</radialGradient>
<linearGradient id="paint13_linear_25_3252" x1="100.857" y1="12.2337" x2="70.0367" y2="73.2987" gradientUnits="userSpaceOnUse">
<stop stop-color="#9DCAC5"/>
<stop offset="0.11" stop-color="#CEFFE0"/>
<stop offset="0.17" stop-color="#E2FFF5"/>
<stop offset="0.4" stop-color="#BDEAE3"/>
<stop offset="0.7" stop-color="#AFD6C5"/>
<stop offset="0.96" stop-color="#B4E0C8"/>
<stop offset="1" stop-color="#B5E3C9"/>
</linearGradient>
<linearGradient id="paint14_linear_25_3252" x1="56.408" y1="24.0301" x2="84.3804" y2="44.7093" gradientUnits="userSpaceOnUse">
<stop stop-color="#B6DDE4"/>
<stop offset="0.56" stop-color="#B9E3E2"/>
<stop offset="0.58" stop-color="#BAE4E2"/>
<stop offset="0.73" stop-color="#C9ECEA"/>
<stop offset="1" stop-color="#EFFFFF"/>
</linearGradient>
<radialGradient id="paint15_radial_25_3252" cx="0" cy="0" r="1" gradientUnits="userSpaceOnUse" gradientTransform="translate(98.1536 35.1348) rotate(54.3596) scale(27.0941)">
<stop stop-color="white"/>
<stop offset="1"/>
</radialGradient>
<radialGradient id="paint16_radial_25_3252" cx="0" cy="0" r="1" gradientUnits="userSpaceOnUse" gradientTransform="translate(83.939 25.4579) rotate(54.3596) scale(18.5514 18.5514)">
<stop stop-color="white"/>
<stop offset="1"/>
</radialGradient>
<clipPath id="clip0_25_3252">
<rect width="127.92" height="112" fill="white" transform="translate(2.39722 0.0197754) rotate(1.09627)"/>
</clipPath>
</defs>
</svg>
