<svg width="33" height="32" viewBox="0 0 33 32" fill="none" xmlns="http://www.w3.org/2000/svg">
<g id="facebook logo" clip-path="url(#clip0_2031_751)">
<path id="Vector" d="M27.9224 0.000488281H4.54687C2.16543 0.000488281 0.234802 1.93103 0.234802 4.31255V27.6883C0.234802 30.0698 2.16535 32.0003 4.54687 32.0003H16.0756L16.0952 20.5653H13.1244C12.7383 20.5653 12.425 20.2531 12.4235 19.8671L12.4093 16.1811C12.4078 15.7929 12.7221 15.4774 13.1102 15.4774H16.0757V11.9158C16.0757 7.78264 18.6 5.53208 22.287 5.53208H25.3126C25.6997 5.53208 26.0136 5.8459 26.0136 6.23308V9.34111C26.0136 9.72813 25.6999 10.0419 25.313 10.0421L23.4562 10.043C21.4511 10.043 21.0628 10.9958 21.0628 12.3941V15.4775H25.4688C25.8886 15.4775 26.2144 15.8441 26.1649 16.261L25.728 19.947C25.6862 20.2997 25.3871 20.5655 25.0319 20.5655H21.0825L21.0628 32.0005H27.9226C30.304 32.0005 32.2346 30.0699 32.2346 27.6885V4.31255C32.2345 1.93103 30.3039 0.000488281 27.9224 0.000488281Z" fill="white"/>
</g>
<defs>
<clipPath id="clip0_2031_751">
<rect width="32" height="32" fill="white" transform="translate(0.234619)"/>
</clipPath>
</defs>
</svg>
