<svg width="120" height="91" viewBox="0 0 120 91" fill="none" xmlns="http://www.w3.org/2000/svg">
<path fill-rule="evenodd" clip-rule="evenodd" d="M41.0408 23.8454C41.0444 29.4472 41.067 34.31 41.0912 34.6516C41.5668 41.3676 45.1625 47.2823 50.5836 50.2664C51.3989 50.7151 52.1898 51.0503 53.9217 51.681C54.3629 51.8417 55.0308 52.0873 55.406 52.2268C55.7811 52.3663 56.1029 52.4805 56.1211 52.4805C56.1392 52.4805 56.1455 51.1355 56.1348 49.4918C56.116 46.5959 56.1119 46.4901 56.0007 46.089C55.6665 44.8828 55.0913 44.1671 53.8619 43.4275C52.9198 42.8607 52.5619 42.5807 51.7737 41.7935C49.9039 39.9262 48.6704 37.1526 48.4382 34.2934C48.4037 33.8678 48.3841 30.6889 48.3841 25.4883C48.3841 16.7004 48.3929 16.9983 48.111 16.2533C47.8769 15.6347 47.4005 14.9428 46.9442 14.5585C46.6179 14.2835 46.0233 13.9527 45.6003 13.8107C45.2665 13.6986 45.1713 13.6933 43.1438 13.6771L41.0344 13.6603L41.0408 23.8454ZM74.4218 13.7715C73.2065 14.0897 72.2546 14.9597 71.7628 16.2016C71.4539 16.9818 71.4671 16.568 71.4615 25.6299C71.4586 30.1933 71.4353 34.1366 71.4097 34.3928C71.1733 36.7593 70.3609 38.9167 69.0439 40.6754C68.6181 41.2441 68.551 41.3198 67.9174 41.9487C67.3024 42.5591 66.7407 42.9851 65.8807 43.4932C64.7736 44.1473 64.1742 44.9131 63.849 46.089C63.738 46.49 63.7338 46.5972 63.7153 49.4918C63.7049 51.1356 63.7082 52.4805 63.7228 52.4805C63.7732 52.4805 67.302 51.1772 67.7398 50.9968C68.3572 50.7425 69.5306 50.1321 70.1639 49.7359C71.7223 48.7609 73.1579 47.4733 74.4609 45.882C74.6307 45.6747 75.3867 44.6337 75.5323 44.407C77.4547 41.4121 78.544 38.0554 78.7633 34.4506C78.7934 33.9565 78.8143 29.5505 78.8145 23.6411L78.815 13.6657L76.8095 13.6685C74.9985 13.6711 74.7671 13.6811 74.4218 13.7715Z" fill="#319F60"/>
<path fill-rule="evenodd" clip-rule="evenodd" d="M21.7485 73.2372H21.2885C20.871 73.2372 20.5315 73.5754 20.5315 73.9932V77.3849C20.5315 78.5951 19.5493 79.5769 18.3376 79.5769H12.4434C11.2317 79.5769 10.2487 78.5951 10.2487 77.3849V73.4889C10.2487 73.3496 10.1369 73.2372 9.99658 73.2372H9.53666C9.11919 73.2372 8.78052 73.5754 8.78052 73.9932V77.3824C8.78052 79.4696 10.4738 81.1616 12.5638 81.1616H18.2172C20.3072 81.1616 22.0005 79.4696 22.0005 77.3824V73.4889C22.0005 73.3496 21.8879 73.2372 21.7485 73.2372ZM41.8965 73.2372H41.4366C41.0192 73.2372 40.6804 73.5754 40.6804 73.9933V79.5242C40.6804 79.6236 40.5688 79.6842 40.4847 79.6288L31.1182 73.463C30.8956 73.316 30.6331 73.2372 30.3655 73.2372H29.6855C29.2672 73.2372 28.9286 73.5754 28.9286 73.9933V80.9099C28.9286 81.0492 29.0412 81.1617 29.1806 81.1617H29.6405C30.0589 81.1617 30.3967 80.8234 30.3967 80.4056V74.879C30.3967 74.7796 30.5075 74.7199 30.5907 74.7744L31.432 75.3283L31.4391 75.3331L31.4491 75.3396C33.7977 76.8861 38.501 79.9831 39.952 80.9376C40.166 81.0786 40.4144 81.1556 40.6702 81.1608L40.6797 81.1617H41.3923C41.8098 81.1617 42.1493 80.8234 42.1493 80.4056V73.489C42.1493 73.3497 42.0359 73.2372 41.8965 73.2372ZM49.837 73.2372H50.2969C50.4363 73.2372 50.5489 73.3506 50.5489 73.4898V80.4056C50.5489 80.8243 50.2102 81.1617 49.7927 81.1617H49.3321C49.1927 81.1617 49.08 81.0492 49.08 80.9099V73.9933C49.08 73.5763 49.4195 73.2372 49.837 73.2372ZM81.3238 76.4075C80.9056 76.4075 80.5669 76.7458 80.5669 77.1635C80.5669 77.5511 80.8822 77.8659 81.2711 77.8659H88.6237C89.0422 77.8659 89.3807 77.5286 89.3807 77.1099V76.6592C89.3807 76.52 89.2672 76.4075 89.1278 76.4075H81.3238ZM79.098 77.0139C79.098 75.8037 80.0803 74.8228 81.292 74.8228H90.0926C90.5104 74.8228 90.8499 74.4837 90.8499 74.0668V73.4898C90.8499 73.3506 90.7361 73.2372 90.5978 73.2372H81.4131C79.323 73.2372 77.6291 74.9292 77.6291 77.0165V77.3833C77.6291 79.4706 79.323 81.1617 81.4131 81.1617H90.5978C90.7361 81.1617 90.8499 81.0492 90.8499 80.9099V80.333C90.8499 79.916 90.5104 79.577 90.0926 79.577H81.292C80.0803 79.577 79.098 78.596 79.098 77.3859V77.0139ZM110.998 77.3824V77.0156C110.998 74.9292 109.304 73.2372 107.215 73.2372H98.0291C97.8904 73.2372 97.777 73.3497 97.777 73.489V74.0659C97.777 74.4837 98.1158 74.8219 98.5339 74.8219H107.335C108.547 74.8219 109.529 75.8037 109.529 77.013V77.385C109.529 78.5951 108.547 79.577 107.335 79.577H99.3725C99.303 79.577 99.247 79.5207 99.247 79.4498V77.1627C99.247 76.7458 98.9071 76.4066 98.4897 76.4066H98.0291C97.8904 76.4066 97.777 76.5191 97.777 76.6584V80.9099C97.777 81.0492 97.8904 81.1617 98.0291 81.1617H107.215C109.304 81.1617 110.998 79.4697 110.998 77.3824ZM58.2344 73.2372H70.4463C70.5856 73.2372 70.6983 73.3506 70.6983 73.4898V74.0668C70.6983 74.4837 70.3596 74.8228 69.9414 74.8228H64.9478C64.8787 74.8228 64.8224 74.8782 64.8224 74.9491V80.4056C64.8224 80.8243 64.4839 81.1617 64.0654 81.1617H63.6055C63.4661 81.1617 63.3535 81.0492 63.3535 80.9099V74.9491C63.3535 74.8782 63.2971 74.8228 63.228 74.8228H57.7295C57.5909 74.8228 57.4775 74.7095 57.4775 74.5702V73.9933C57.4775 73.5763 57.817 73.2372 58.2344 73.2372Z" fill="white"/>
</svg>
