<svg width="120" height="91" viewBox="0 0 120 91" fill="none" xmlns="http://www.w3.org/2000/svg">
<path fill-rule="evenodd" clip-rule="evenodd" d="M41.0411 23.9371C41.0446 29.5389 41.0673 34.4017 41.0914 34.7432C41.5671 41.4592 45.1627 47.3739 50.5839 50.3581C51.3992 50.8068 52.1901 51.142 53.922 51.7727C54.3632 51.9334 55.031 52.179 55.4062 52.3185C55.7813 52.458 56.1031 52.5722 56.1213 52.5722C56.1395 52.5722 56.1457 51.2272 56.135 49.5834C56.1163 46.6876 56.1121 46.5818 56.0009 46.1807C55.6667 44.9745 55.0916 44.2588 53.8622 43.5192C52.9201 42.9524 52.5622 42.6724 51.7739 41.8852C49.9041 40.0179 48.6706 37.2443 48.4385 34.385C48.4039 33.9595 48.3844 30.7805 48.3844 25.58C48.3844 16.7921 48.3932 17.09 48.1112 16.345C47.8771 15.7264 47.4008 15.0344 46.9445 14.6501C46.6181 14.3752 46.0236 14.0444 45.6005 13.9023C45.2668 13.7903 45.1715 13.785 43.144 13.7688L41.0347 13.752L41.0411 23.9371ZM74.422 13.8632C73.2067 14.1814 72.2548 15.0514 71.7631 16.2932C71.4542 17.0735 71.4674 16.6597 71.4617 25.7216C71.4588 30.285 71.4355 34.2283 71.41 34.4845C71.1735 36.851 70.3611 39.0084 69.0442 40.767C68.6183 41.3357 68.5513 41.4115 67.9176 42.0404C67.3026 42.6508 66.741 43.0768 65.881 43.5849C64.7739 44.239 64.1745 45.0047 63.8492 46.1807C63.7382 46.5816 63.7341 46.6889 63.7156 49.5834C63.7051 51.2273 63.7084 52.5722 63.723 52.5722C63.7735 52.5722 67.3023 51.2689 67.74 51.0885C68.3574 50.8342 69.5309 50.2238 70.1641 49.8276C71.7226 48.8526 73.1582 47.565 74.4611 45.9737C74.6309 45.7663 75.387 44.7254 75.5326 44.4987C77.455 41.5038 78.5443 38.147 78.7636 34.5423C78.7936 34.0481 78.8145 29.6422 78.8148 23.7327L78.8152 13.7573L76.8098 13.7602C74.9988 13.7628 74.7673 13.7728 74.422 13.8632Z" fill="#404040"/>
<path fill-rule="evenodd" clip-rule="evenodd" d="M21.7482 73.3291H21.2883C20.8708 73.3291 20.5313 73.6673 20.5313 74.0851V77.4769C20.5313 78.687 19.5491 79.6688 18.3373 79.6688H12.4432C11.2315 79.6688 10.2484 78.687 10.2484 77.4769V73.5808C10.2484 73.4416 10.1366 73.3291 9.99633 73.3291H9.53642C9.11894 73.3291 8.78027 73.6673 8.78027 74.0851V77.4743C8.78027 79.5616 10.4736 81.2535 12.5636 81.2535H18.2169C20.3069 81.2535 22.0003 79.5616 22.0003 77.4743V73.5808C22.0003 73.4416 21.8876 73.3291 21.7482 73.3291ZM41.8963 73.3291H41.4364C41.0189 73.3291 40.6802 73.6674 40.6802 74.0852V79.6161C40.6802 79.7156 40.5686 79.7761 40.4844 79.7208L31.1179 73.5549C30.8953 73.4079 30.6329 73.3291 30.3652 73.3291H29.6853C29.267 73.3291 28.9283 73.6674 28.9283 74.0852V81.0018C28.9283 81.1411 29.0409 81.2536 29.1803 81.2536H29.6403C30.0586 81.2536 30.3964 80.9154 30.3964 80.4975V74.971C30.3964 74.8715 30.5073 74.8118 30.5904 74.8663L31.4318 75.4203L31.4389 75.425L31.4488 75.4315C33.7975 76.9781 38.5008 80.075 39.9517 81.0295C40.1658 81.1705 40.4142 81.2475 40.6699 81.2527L40.6794 81.2536H41.3921C41.8095 81.2536 42.1491 80.9154 42.1491 80.4975V73.5809C42.1491 73.4416 42.0356 73.3291 41.8963 73.3291ZM49.8367 73.3291H50.2966C50.436 73.3291 50.5487 73.4425 50.5487 73.5817V80.4975C50.5487 80.9162 50.2099 81.2536 49.7925 81.2536H49.3319C49.1925 81.2536 49.0798 81.1411 49.0798 81.0018V74.0852C49.0798 73.6682 49.4193 73.3291 49.8367 73.3291ZM81.3236 76.4994C80.9054 76.4994 80.5666 76.8377 80.5666 77.2554C80.5666 77.643 80.882 77.9578 81.2709 77.9578H88.6235C89.042 77.9578 89.3804 77.6205 89.3804 77.2018V76.7512C89.3804 76.6119 89.267 76.4994 89.1276 76.4994H81.3236ZM79.0977 77.1058C79.0977 75.8957 80.08 74.9147 81.2917 74.9147H90.0924C90.5102 74.9147 90.8497 74.5756 90.8497 74.1587V73.5817C90.8497 73.4425 90.7359 73.3291 90.5976 73.3291H81.4128C79.3227 73.3291 77.6288 75.0211 77.6288 77.1084V77.4752C77.6288 79.5625 79.3227 81.2536 81.4128 81.2536H90.5976C90.7359 81.2536 90.8497 81.1411 90.8497 81.0018V80.4249C90.8497 80.0079 90.5102 79.6689 90.0924 79.6689H81.2917C80.08 79.6689 79.0977 78.6879 79.0977 77.4778V77.1058ZM110.998 77.4743V77.1075C110.998 75.0211 109.303 73.3291 107.214 73.3291H98.0288C97.8902 73.3291 97.7767 73.4416 97.7767 73.5809V74.1579C97.7767 74.5756 98.1155 74.9139 98.5337 74.9139H107.335C108.546 74.9139 109.529 75.8957 109.529 77.1049V77.4769C109.529 78.6871 108.546 79.6689 107.335 79.6689H99.3722C99.3027 79.6689 99.2467 79.6126 99.2467 79.5417V77.2546C99.2467 76.8377 98.9069 76.4986 98.4894 76.4986H98.0288C97.8902 76.4986 97.7767 76.611 97.7767 76.7503V81.0018C97.7767 81.1411 97.8902 81.2536 98.0288 81.2536H107.214C109.303 81.2536 110.998 79.5616 110.998 77.4743ZM58.2342 73.3291H70.446C70.5854 73.3291 70.6981 73.4425 70.6981 73.5817V74.1587C70.6981 74.5756 70.3593 74.9147 69.9411 74.9147H64.9476C64.8785 74.9147 64.8221 74.9701 64.8221 75.041V80.4975C64.8221 80.9162 64.4837 81.2536 64.0652 81.2536H63.6053C63.4659 81.2536 63.3532 81.1411 63.3532 81.0018V75.041C63.3532 74.9701 63.2969 74.9147 63.2277 74.9147H57.7293C57.5906 74.9147 57.4772 74.8014 57.4772 74.6621V74.0852C57.4772 73.6682 57.8167 73.3291 58.2342 73.3291Z" fill="#131514"/>
</svg>
