<svg width="155" height="155" viewBox="0 0 155 155" fill="none" xmlns="http://www.w3.org/2000/svg">
<g clip-path="url(#clip0_25_3559)">
<path d="M122.721 55.8934C119.689 44.2831 113.669 36.9054 106.286 34.2127L99.9617 32.4263L99.9391 32.4486C107.27 35.1785 113.229 42.5409 116.246 54.0911C122.683 78.7459 113.299 113.154 95.2834 130.946C86.5397 139.581 77.3656 142.71 69.5048 140.832L73.7937 141.991C82.1043 145.079 92.1914 142.226 101.765 132.771C119.78 114.979 129.165 80.5708 122.728 55.9159L122.721 55.8934Z" fill="url(#paint0_linear_25_3559)"/>
<path d="M116.239 54.0836C109.802 29.4288 89.9758 23.8693 71.9605 41.6612C53.9451 59.4532 44.5609 93.8613 50.9975 118.516C57.4341 143.171 77.2606 148.731 95.276 130.939C113.291 113.147 122.683 78.7311 116.239 54.0836Z" fill="url(#paint1_linear_25_3559)"/>
<path d="M116.898 54.2676C113.632 41.7712 106.924 34.1792 98.7571 32.0514C106.63 34.4098 113.068 41.9251 116.246 54.0911C122.683 78.746 113.306 113.147 95.2835 130.946C86.404 139.715 77.0877 142.806 69.1456 140.74C77.2279 143.159 86.8137 140.145 95.9421 131.13C113.957 113.338 123.342 78.93 116.905 54.2752L116.898 54.2676Z" fill="white"/>
<path d="M95.2835 130.931C77.2682 148.723 57.4416 143.163 51.005 118.509C44.5684 93.8536 53.9527 59.4456 71.9681 41.6536C89.9834 23.8617 109.802 29.4286 116.239 54.0835C122.676 78.7384 113.291 113.146 95.276 130.938L95.2835 130.931Z" fill="url(#paint2_linear_25_3559)"/>
<path d="M94.6537 128.513C77.6116 145.344 58.8553 140.083 52.7703 116.765C46.6777 93.4545 55.5555 60.9027 72.5977 44.0719C89.6398 27.241 108.381 32.5013 114.474 55.827C120.566 79.1377 111.688 111.689 94.6462 128.52L94.6537 128.513Z" fill="white"/>
<path d="M93.0573 122.43C78.4745 136.832 62.4202 132.33 57.2138 112.377C52.0001 92.4156 59.5964 64.5718 74.1868 50.1624C88.7771 35.753 104.824 40.2617 110.03 60.2154C115.244 80.1766 107.648 108.02 93.0573 122.43Z" fill="#6DC89D"/>
<path d="M91.2705 115.581C79.4489 127.256 66.4408 123.606 62.2155 107.437C57.9828 91.2608 64.1518 68.6864 75.9734 57.0114C87.795 45.3364 100.803 48.9864 105.028 65.1551C109.254 81.3239 103.092 103.906 91.2705 115.581Z" fill="white"/>
<path d="M89.5863 109.122C80.375 118.219 70.2334 115.375 66.9456 102.765C63.6503 90.1639 68.4461 72.5669 77.6575 63.4697C86.8689 54.3726 97.0104 57.2175 100.298 69.8265C103.594 82.4281 98.7977 100.025 89.5863 109.122Z" fill="#6DC89D"/>
<path d="M87.9975 103.032C81.2455 109.7 73.8058 107.614 71.3893 98.3771C68.9727 89.14 72.4946 76.2285 79.2466 69.5603C85.9986 62.892 93.4382 64.9778 95.8548 74.2149C98.2714 83.4521 94.7494 96.3635 87.9975 103.032Z" fill="white"/>
<path d="M53.4365 116.927C47.3439 93.6161 56.2218 61.0643 73.2639 44.2335C81.3965 36.2017 89.925 33.2034 97.2778 34.7938C89.7772 32.8576 80.9792 35.7943 72.5977 44.0718C55.5555 60.9027 46.6852 93.447 52.7703 116.765C55.9557 128.954 62.5909 136.2 70.6474 137.945C62.8998 135.955 56.5341 128.77 53.4441 116.919L53.4365 116.927Z" fill="#6DC89D"/>
<path d="M62.8893 107.591C58.6566 91.4149 64.8255 68.8405 76.6472 57.1655C82.3128 51.5701 88.2488 49.5078 93.3626 50.6418C88.101 49.162 81.8879 51.1701 75.9809 57.0039C64.1592 68.6789 58.0053 91.2534 62.223 107.43C64.4197 115.856 69.0145 120.87 74.57 122.105C69.3159 120.632 65.0132 115.672 62.8969 107.584L62.8893 107.591Z" fill="#CED3F4"/>
<path d="M72.063 98.5313C69.654 89.2867 73.1684 76.3827 79.9204 69.7144C83.0663 66.6076 86.3652 65.406 89.226 65.9337C86.2099 65.0677 82.6414 66.2075 79.2465 69.5603C72.4946 76.2285 68.9801 89.1325 71.3892 98.3772C72.6855 103.311 75.3966 106.207 78.6767 106.812C75.698 105.954 73.249 103.127 72.0555 98.5388L72.063 98.5313Z" fill="#CED3F4"/>
<path d="M86.0494 95.6121C82.2924 99.3225 78.1535 98.1645 76.8135 93.0203C75.4735 87.876 77.4302 80.698 81.1872 76.9876C84.9441 73.2772 89.0831 74.4352 90.4231 79.5794C91.763 84.7237 89.8064 91.9017 86.0494 95.6121Z" fill="url(#paint3_linear_25_3559)"/>
<path opacity="0.5" d="M84.1083 87.0675C83.814 87.3581 83.4847 87.2661 83.3823 86.8606C83.2799 86.4551 83.4334 85.8862 83.7276 85.5956C84.0218 85.305 84.3511 85.3971 84.4536 85.8026C84.556 86.2081 84.4025 86.777 84.1083 87.0675Z" fill="url(#paint4_linear_25_3559)"/>
<path d="M90.4305 79.5719C89.8227 77.2513 88.64 75.7369 87.1818 75.1205C88.3994 75.8553 89.3728 77.2635 89.8999 79.3061C91.2398 84.4504 89.2831 91.6284 85.5262 95.3388C83.4666 97.3728 81.2963 97.9366 79.5315 97.1908C81.3765 98.3044 83.7786 97.8396 86.0494 95.597C89.8064 91.8866 91.763 84.7085 90.4231 79.5643L90.4305 79.5719Z" fill="#004223"/>
<path d="M16.6722 68.2177L14.0251 64.6923C12.575 62.7714 14.8176 60.2437 16.9019 61.4488L38.873 74.1744L16.6722 68.2177Z" fill="url(#paint5_linear_25_3559)"/>
<path d="M17.0932 68.0404L14.446 64.515C13.5239 63.2947 14.0953 61.8362 15.1563 61.2355C13.8341 61.6471 12.9839 63.3213 14.0175 64.6998L16.6647 68.2252L38.8655 74.1819L37.9242 73.6362L17.0931 68.0554L17.0932 68.0404Z" fill="#006136"/>
<path d="M14.3107 64.5593L16.9579 68.0847L38.1782 73.7728L37.9316 73.6288L17.1005 68.0481L14.4534 64.5227C13.5313 63.3023 14.1027 61.8438 15.1636 61.2431C15.111 61.2653 15.0584 61.2875 15.0133 61.3022C13.9598 61.9104 13.4111 63.3465 14.3181 64.5668L14.3107 64.5593Z" fill="#A1DBBD"/>
<path d="M85.3534 86.9856C85.293 87.0452 85.2254 87.0673 85.173 87.0594C85.173 87.0594 83.4416 88.1583 77.4687 86.5315C68.9359 84.199 73.0098 84.9742 73.0098 84.9742C72.7853 84.9128 73.0557 84.8245 72.9679 84.4791C72.7923 83.7882 73.0457 82.8226 73.5512 82.3234C73.8001 82.0775 73.5692 81.8437 73.7937 81.905C73.7937 81.905 69.8887 80.5011 78.4215 82.8336C84.4093 84.4755 85.365 86.3184 85.365 86.3184C85.4249 86.3337 85.4621 86.3865 85.4915 86.4766C85.5429 86.6494 85.4664 86.8888 85.3382 87.0155L85.3534 86.9856Z" fill="#A1DBBD"/>
<path d="M73.8798 84.9347C73.3064 85.5009 72.6702 85.3245 72.4727 84.536C72.2677 83.755 72.5669 82.6547 73.1403 82.0885C73.7136 81.5222 74.3498 81.6986 74.5474 82.4871C74.7524 83.2682 74.4531 84.3684 73.8798 84.9347Z" fill="#CED3F4"/>
<path d="M73.6784 84.7759C73.4143 85.0366 73.1288 85.1398 72.8892 85.0783L13.9078 69.0553C13.6609 68.9863 13.9689 68.8907 13.8662 68.5152C13.676 67.7643 13.9524 66.7163 14.5032 66.1724C14.7747 65.9042 14.5289 65.6552 14.7684 65.7167L73.7871 81.7625C74.0266 81.839 74.2201 82.0651 74.3153 82.4331C74.5055 83.184 74.2291 84.232 73.6784 84.7759Z" fill="url(#paint6_linear_25_3559)"/>
<path d="M14.6595 68.7449C14.1088 69.2888 13.51 69.1202 13.3123 68.3617C13.1221 67.6107 13.3985 66.5628 13.9492 66.0189C14.5 65.475 15.0987 65.6437 15.2964 66.4022C15.4941 67.1607 15.2102 68.2011 14.6595 68.7449Z" fill="#004223"/>
<path d="M17.2973 66.5723L39.8414 72.7861L29.653 60.6288C25.8426 56.0765 18.4216 58.2195 17.6351 64.1077L17.3047 66.5799L17.2973 66.5723Z" fill="#006136"/>
<path d="M17.5661 66.754L40.1027 72.9601L29.9143 60.8029C26.1039 56.2506 18.6829 58.3936 17.8964 64.2818L17.5586 66.7464L17.5661 66.754Z" fill="url(#paint7_linear_25_3559)"/>
<path d="M18.0219 64.59C18.8084 58.7018 26.222 56.5512 30.0399 61.1111L39.9305 72.9216L40.1102 72.9677L29.9218 60.8105C26.1114 56.2581 18.6903 58.4011 17.9038 64.2894L17.5735 66.7615L17.7307 66.8L18.0294 64.5976L18.0219 64.59Z" fill="#A1DBBD"/>
<path d="M16.5089 69.1539L15.5841 70.7676C13.1206 75.0634 16.9121 80.2454 21.7545 79.2035L38.9172 75.5018L16.5088 69.1689L16.5089 69.1539Z" fill="#006136"/>
<path d="M16.9135 69.2015L15.9887 70.8152C13.5252 75.111 17.3166 80.293 22.1591 79.2511L39.3218 75.5494L16.9134 69.2165L16.9135 69.2015Z" fill="url(#paint8_linear_25_3559)"/>
<path d="M22.4821 79.1557C17.6396 80.1977 13.8556 75.0232 16.3117 70.7199L17.1454 69.2706L16.8984 69.2015L15.9737 70.8153C13.5101 75.111 17.3016 80.293 22.1441 79.2511L39.3068 75.5494L39.2693 75.5416L22.4745 79.1632L22.4821 79.1557Z" fill="#A1DBBD"/>
</g>
<defs>
<linearGradient id="paint0_linear_25_3559" x1="90.4755" y1="144.472" x2="112.155" y2="35.6438" gradientUnits="userSpaceOnUse">
<stop offset="0.09" stop-color="#006136"/>
<stop offset="0.5" stop-color="#008248"/>
<stop offset="0.57" stop-color="#008A4C"/>
<stop offset="0.8" stop-color="#00A359"/>
<stop offset="1" stop-color="#006136"/>
</linearGradient>
<linearGradient id="paint1_linear_25_3559" x1="-148.928" y1="-803.803" x2="-125.604" y2="-714.532" gradientUnits="userSpaceOnUse">
<stop stop-color="#311B61"/>
<stop offset="0.2" stop-color="#290E52"/>
<stop offset="0.49" stop-color="#200041"/>
<stop offset="1" stop-color="#0F001F"/>
</linearGradient>
<linearGradient id="paint2_linear_25_3559" x1="116.794" y1="87.6613" x2="45.3377" y2="84.7188" gradientUnits="userSpaceOnUse">
<stop stop-color="#029A54"/>
<stop offset="0.11" stop-color="#01914F"/>
<stop offset="0.63" stop-color="#016D3D"/>
<stop offset="1" stop-color="#037040"/>
</linearGradient>
<linearGradient id="paint3_linear_25_3559" x1="56.0256" y1="88.9318" x2="90.1752" y2="85.666" gradientUnits="userSpaceOnUse">
<stop stop-color="#177F55"/>
<stop offset="0.1" stop-color="#14915E"/>
<stop offset="0.25" stop-color="#11AB6A"/>
<stop offset="0.38" stop-color="#0FBB72"/>
<stop offset="0.49" stop-color="#0FC175"/>
<stop offset="1" stop-color="#016F3E"/>
</linearGradient>
<linearGradient id="paint4_linear_25_3559" x1="83.456" y1="85.8638" x2="84.3799" y2="86.7993" gradientUnits="userSpaceOnUse">
<stop stop-color="#311B61"/>
<stop offset="0.2" stop-color="#290E52"/>
<stop offset="0.49" stop-color="#200041"/>
<stop offset="1" stop-color="#0F001F"/>
</linearGradient>
<linearGradient id="paint5_linear_25_3559" x1="16.3807" y1="59.6686" x2="34.7314" y2="78.2498" gradientUnits="userSpaceOnUse">
<stop stop-color="#009954"/>
<stop offset="0.4" stop-color="#006C3B"/>
<stop offset="1" stop-color="#006237"/>
</linearGradient>
<linearGradient id="paint6_linear_25_3559" x1="44.574" y1="73.7302" x2="43.6306" y2="77.1207" gradientUnits="userSpaceOnUse">
<stop stop-color="#006136"/>
<stop offset="0.13" stop-color="#007641"/>
<stop offset="0.23" stop-color="#008248"/>
<stop offset="0.4" stop-color="#006136"/>
<stop offset="0.53" stop-color="#004C29"/>
<stop offset="0.63" stop-color="#004223"/>
<stop offset="0.87" stop-color="#006136"/>
<stop offset="1" stop-color="#004223"/>
</linearGradient>
<linearGradient id="paint7_linear_25_3559" x1="21.0052" y1="62.3143" x2="67.4947" y2="78.4694" gradientUnits="userSpaceOnUse">
<stop stop-color="#009954"/>
<stop offset="0.4" stop-color="#006C3B"/>
<stop offset="1" stop-color="#006237"/>
</linearGradient>
<linearGradient id="paint8_linear_25_3559" x1="17.2708" y1="74.4221" x2="57.47" y2="71.3065" gradientUnits="userSpaceOnUse">
<stop stop-color="#009954"/>
<stop offset="0.4" stop-color="#006C3B"/>
<stop offset="1" stop-color="#006237"/>
</linearGradient>
<clipPath id="clip0_25_3559">
<rect width="112" height="105.999" fill="white" transform="translate(76.0017 0.786865) rotate(45.3575)"/>
</clipPath>
</defs>
</svg>
