<svg width="32" height="32" viewBox="0 0 32 32" fill="none" xmlns="http://www.w3.org/2000/svg">
<g id="Social Media / Telegram">
<path id="Vector" d="M4.59402 14.5352C4.59402 14.5352 16.0932 9.72891 20.0813 8.03649C21.6101 7.35958 26.7947 5.19327 26.7947 5.19327C26.7947 5.19327 29.1876 4.2456 28.9882 6.54719C28.9217 7.49496 28.39 10.812 27.8582 14.3998C27.0606 19.477 26.1965 25.0279 26.1965 25.0279C26.1965 25.0279 26.0635 26.585 24.9336 26.8557C23.8036 27.1265 21.9424 25.9081 21.6101 25.6372C21.3442 25.4342 16.6249 22.3878 14.8967 20.8986C14.4314 20.4924 13.8997 19.6801 14.9631 18.7323C17.3561 16.4984 20.2142 13.7229 21.9424 11.9629C22.7401 11.1505 23.5377 9.25502 20.2142 11.5566C15.495 14.8737 10.8421 17.9877 10.8421 17.9877C10.8421 17.9877 9.77858 18.6646 7.78453 18.0553C5.79039 17.4462 3.46397 16.6338 3.46397 16.6338C3.46397 16.6338 1.8688 15.6184 4.59402 14.5352Z" fill="#1D5F3A"/>
</g>
</svg>
