<svg width="33" height="32" viewBox="0 0 33 32" fill="none" xmlns="http://www.w3.org/2000/svg">
<g id="LinkedIn logo" clip-path="url(#clip0_2031_753)">
<path id="Vector" d="M27.4346 0H5.03462C2.38365 0 0.234619 2.14903 0.234619 4.8V27.2C0.234619 29.851 2.38365 32 5.03462 32H27.4346C30.0856 32 32.2346 29.851 32.2346 27.2V4.8C32.2346 2.14903 30.0856 0 27.4346 0Z" fill="white"/>
<path id="Vector_2" d="M26.2863 6.22959L5.0234 14.4715C4.16775 14.8552 3.87834 15.6239 4.81655 16.041L10.2714 17.7835L23.4605 9.59024C24.1807 9.07586 24.9179 9.21303 24.2835 9.77884L12.9559 20.0883L12.6 24.4512C12.9296 25.1249 13.5331 25.128 13.918 24.7932L17.052 21.8125L22.4194 25.8525C23.666 26.5943 24.3444 26.1156 24.6126 24.7559L28.1331 7.9995C28.4987 6.32578 27.8753 5.58834 26.2863 6.22959Z" fill="#131514"/>
</g>
<defs>
<clipPath id="clip0_2031_753">
<rect width="32" height="32" fill="white" transform="translate(0.234619)"/>
</clipPath>
</defs>
</svg>
